PathFileType	4	(X/Y/Z)	36_1_rein_29_p1_0-385_filt_butterworth.trc
DataRate	CameraRate	NumFrames	NumMarkers	Units	OrigDataRate	OrigDataStartFrame	OrigNumFrames
58.0	58.0	5	27	m	58.0	192	385
Frame#	Time	RHip			RKnee			RAnkle			RBigToe			RSmallToe			RHeel			LHip			LKnee			LAnkle			LBigToe			LSmallToe			LHeel			Neck			Head			Nose			RShoulder			RElbow			RWrist			RThumb			RIndex			RPinky			LShoulder			LElbow			LWrist			LThumb			LIndex			LPinky			
		X1	Y1	Z1	X2	Y2	Z2	X3	Y3	Z3	X4	Y4	Z4	X5	Y5	Z5	X6	Y6	Z6	X7	Y7	Z7	X8	Y8	Z8	X9	Y9	Z9	X10	Y10	Z10	X11	Y11	Z11	X12	Y12	Z12	X13	Y13	Z13	X14	Y14	Z14	X15	Y15	Z15	X16	Y16	Z16	X17	Y17	Z17	X18	Y18	Z18	X19	Y19	Z19	X20	Y20	Z20	X21	Y21	Z21	X22	Y22	Z22	X23	Y23	Z23	X24	Y24	Z24	X25	Y25	Z25	X26	Y26	Z26	X27	Y27	Z27	
192	3.310344827586207	0.31437856248278395	0.866519061301337	0.6832844846484531	0.3539242954005141	0.4246964133793853	0.7020917358052787	0.36765030200236504	-0.010006230336307792	0.764021996201759	0.32945250490126354	-0.003553216911605636	0.5187157700925813	0.4035509406580017	-0.010979948521840546	0.5621024095258776	0.3485980991348164	-0.0730154554398832	0.8391306498095313	0.13191449300819086	0.8624116265421766	0.603511529742167	0.16474414917489558	0.44004687584306057	0.6175308479075393	0.17993856963286253	0.006032521425584955	0.7153181935245239	0.20153299432384125	-0.015284118605344642	0.5373505532618241	0.1449503467848909	-0.02253101880926281	0.5550817401610482	0.19012302856786018	-0.0733642849195748	0.7821991662539078	0.1729340262536289	1.489616609162306	0.5912473403173197	0.29794131315985917	1.762553589313112	0.5234982492040178	0.3235083360991723	1.5853528237059658	0.5383306388173547	0.2889586927870925	1.426326369504849	0.6884209083337314	0.37911489193362524	1.1779008381718779	0.7572335221147406	0.4648011211193428	1.0812368014136948	0.5915907722157545	0.4604185166238677	1.0688790694653818	0.412082992035597	0.46767482208319366	1.0593484765707268	0.43000812314800785	0.4942241368473967	1.0079942670481414	0.493423866246961	0.028316651369595068	1.4128645577279815	0.5040974096923341	-0.059977527822930976	1.1202373158858754	0.5245623442811612	-0.0005468241886721857	0.8566873177677051	0.4505830899887442	0.07738450044903847	0.7533894168440886	0.4469531853693264	0.05275049200831948	0.7382162953239579	0.38970689276857867	0.004434874300961257	0.7080961418326301	0.45863447311318706	
193	3.327586206896552	0.31502580721913703	0.8682112142946142	0.6807895223250992	0.3540310245673156	0.42436933652382697	0.7034900813294196	0.3677330432952912	-0.009791653178111717	0.7635666135449067	0.32943865139726053	-0.004298371626759105	0.5183634515702454	0.40349827272624084	-0.011055755069618048	0.5621450747805476	0.34859535629345084	-0.07305467819739224	0.8391275734310577	0.1314096376355122	0.8626737880065979	0.6040620177478767	0.16446633299580893	0.43989040116731937	0.61838996699406	0.1798728778535856	0.006317770960460212	0.7153323295440215	0.20143399146290852	-0.015306773116592905	0.5373838855669297	0.14586756112604687	-0.02060199035828359	0.5522052817585453	0.19036353886075674	-0.07335800969606895	0.7833348642253233	0.17305022631015998	1.4890998587198552	0.5919661380098347	0.2968538561978408	1.7614136616856944	0.5200622948572414	0.3214059825091612	1.5827799230541373	0.5294882813185452	0.2938263910051919	1.4281588173426583	0.6806508063218093	0.37919808431443597	1.182371914781794	0.7600842769872195	0.4648940920223629	1.0930488237973695	0.588371297275095	0.461317941318839	1.088462366685719	0.4082594984659194	0.4670078166511291	1.0759249328654412	0.4319460917115795	0.4927548629608651	1.02229171993873	0.4890370962191219	0.028273742611333634	1.414111139520297	0.5039860034835926	-0.05890670834248715	1.122140059940412	0.5259764332873557	-0.0005151762362585067	0.8599884815876164	0.4517802639195773	0.07643858071170553	0.7559457625130725	0.44588298145470956	0.05166810247739347	0.7388969277532779	0.3894848682786792	0.004065697608722616	0.7081204368469937	0.4587641283408332	
194	3.3448275862068964	0.31572142212706045	0.8697137342434286	0.6785029684986859	0.3542406987175487	0.42419209050529616	0.704754129977772	0.36799138254105157	-0.009736131440789178	0.76342552580916	0.32941728264786013	-0.004878059491449406	0.517976692352073	0.4034365485058433	-0.011127871470767214	0.5621583296643156	0.3485942416136959	-0.07312166173303562	0.8391247773248536	0.13094278540958773	0.8629524583771891	0.6048021720979717	0.16429633520018463	0.43989907642052634	0.6190469280286702	0.1797940498601642	0.006522374700400194	0.7153324839465371	0.20155083118767642	-0.015341512850381926	0.5375062151303619	0.14622779157371874	-0.019834681904468236	0.551088330093487	0.190608073825376	-0.07354074682345008	0.784605276467532	0.17300504909512032	1.4882386210991916	0.5930783705168947	0.29473109313994483	1.7607503374252942	0.5138925633774855	0.31792935589560156	1.579214406422242	0.5162412615682915	0.2980028526228068	1.429636888359369	0.6744284497767727	0.37941771543995023	1.1864472769863295	0.7612359415147467	0.46514239402369767	1.1075348105210847	0.5819947409536442	0.46200070770926305	1.1107590758328032	0.4018310963830573	0.4661816985258672	1.0944681540202106	0.4332328010190877	0.4904885052807492	1.0386689069692112	0.48208873291434384	0.028056796544494216	1.4152639544301928	0.5042145367839826	-0.05806360773592555	1.1241426926792275	0.5287505908238095	-0.00041184222140573147	0.8630666435702455	0.45345835048480093	0.0761343703507504	0.7588239201648868	0.4447178028248958	0.050920285381476624	0.7397470968860587	0.38940032534382646	0.004221128681444612	0.7083816366791185	0.45899881940668175	
195	3.362068965517241	0.31640254397733303	0.8709691707193307	0.6766383695539253	0.35459281125734476	0.4242186290676568	0.7058079896558203	0.36836659533363925	-0.009955229128675261	0.76378565260092	0.3293891781241156	-0.005226872616700358	0.5175987217874028	0.4033681800121492	-0.011190413768344572	0.56213080192122	0.3485958423395463	-0.07321151165776646	0.8391178076891459	0.1305220813577063	0.8632296109141905	0.6057125422194729	0.16422351137374744	0.4400553012308912	0.6195367366208654	0.1797065367391588	0.006588419868947093	0.7153115402654908	0.20170501338940292	-0.015366586207185041	0.5376104257459762	0.1459270287079314	-0.02042270494163833	0.5520157044064435	0.19082479275352612	-0.0739174003417656	0.7858430238637851	0.1728551247720192	1.4870037282995794	0.5946666659281297	0.2917235063200827	1.760482562572414	0.5047036942490274	0.3125178652749383	1.5741931738016155	0.5000321903561734	0.3011732295932752	1.4306041003522116	0.6706053472485337	0.3800007367107282	1.189479105105215	0.7599775348341424	0.4656736927078178	1.1235714199449216	0.5730487545594442	0.461905657096185	1.135176929460776	0.3933088025189734	0.46484355339960215	1.1145514303562147	0.43302697722879735	0.48724887914437365	1.0566232745242097	0.47239234290059234	0.02757278033913041	1.416309362541519	0.5050666258911408	-0.0574805091748368	1.1260868045531116	0.5323073271988142	-0.00023410916741138885	0.8653205755897772	0.4554635092835006	0.07655874656641824	0.7618853404142126	0.44310301880184	0.05081431866849863	0.7406999925915173	0.3894196950158685	0.00496066682336883	0.7090670560259483	0.4588162284355226	
196	3.3793103448275863	0.31703491905389225	0.8719665905396956	0.6753237124200963	0.3550641910994391	0.4244221558960201	0.7065884430727838	0.36880673498856664	-0.010444299042034047	0.7646199997106674	0.32936428901540693	-0.005367613665331936	0.5172856908875185	0.40330938558382046	-0.011230064132738596	0.5620609971198121	0.34860301118557313	-0.07329161366055811	0.8391018878782729	0.13012056104515643	0.8634842681863869	0.6067572449379021	0.16424746582815816	0.4403518671198023	0.6198583851828916	0.17962288217462685	0.006541650133214047	0.7152630018034454	0.2018126181061214	-0.015399336231499555	0.5376227262572533	0.1450558533592189	-0.02216303247177219	0.5546720386873957	0.19100278042675733	-0.07439742104988237	0.7869382246325605	0.17254330164701687	1.4855559157851381	0.5964403643881838	0.2883172542439027	1.7602590419330064	0.49331338785632817	0.30523973171551944	1.567966395876265	0.4835500352321763	0.3034291814852917	1.4309990075522407	0.6695212701818061	0.38093317816083183	1.1911067249089125	0.7567499067644834	0.46621673082013715	1.1396827653334662	0.563027580054906	0.4606671593982583	1.1605991095360007	0.38385740262284274	0.46298431615981184	1.1352359298503873	0.430926885620285	0.48270545047804136	1.0762245505349335	0.460295042515634	0.026768104859735402	1.4173008301251264	0.5067027518435022	-0.057177673430581756	1.1277653822587217	0.5360428917588395	-1.471149906521331e-05	0.8666251171682082	0.4575905817187954	0.07757108380535827	0.7650561591991826	0.4410702000347986	0.05169114436907596	0.7417331745996256	0.38936948526440385	0.006141363304759673	0.7103114085019032	0.457740736468052	
